<mxfile host="app.diagrams.net" modified="2021-04-04T14:22:13.744Z" agent="5.0 (Windows NT 10.0; Win64; x64) AppleWebKit/537.36 (KHTML, like Gecko) Chrome/89.0.4389.114 Safari/537.36" etag="sY-Co4VxlbvyMpjF9RuO" version="14.5.4" type="github">
  <diagram id="KDrUPvWMHiWbPLI4JsUl" name="Page-1">
    <mxGraphModel dx="1102" dy="621" grid="1" gridSize="10" guides="1" tooltips="1" connect="1" arrows="1" fold="1" page="1" pageScale="1" pageWidth="827" pageHeight="1169" math="0" shadow="0">
      <root>
        <mxCell id="0" />
        <mxCell id="1" parent="0" />
        <mxCell id="uWNcW1qfraKrb9NrxXag-6" style="edgeStyle=orthogonalEdgeStyle;rounded=0;orthogonalLoop=1;jettySize=auto;html=1;entryX=0;entryY=0.5;entryDx=0;entryDy=0;entryPerimeter=0;shape=link;width=10;" edge="1" parent="1" source="uWNcW1qfraKrb9NrxXag-4" target="uWNcW1qfraKrb9NrxXag-5">
          <mxGeometry relative="1" as="geometry" />
        </mxCell>
        <mxCell id="uWNcW1qfraKrb9NrxXag-4" value="" style="points=[[0.015,0.015,0],[0.985,0.015,0],[0.985,0.985,0],[0.015,0.985,0],[0.25,0,0],[0.5,0,0],[0.75,0,0],[1,0.25,0],[1,0.5,0],[1,0.75,0],[0.75,1,0],[0.5,1,0],[0.25,1,0],[0,0.75,0],[0,0.5,0],[0,0.25,0]];verticalLabelPosition=bottom;html=1;verticalAlign=top;aspect=fixed;align=center;pointerEvents=1;shape=mxgraph.cisco19.rect;prIcon=l3_switch_with_dual_supervisor;fillColor=#FAFAFA;strokeColor=#005073;" vertex="1" parent="1">
          <mxGeometry x="320" y="480" width="50" height="95" as="geometry" />
        </mxCell>
        <mxCell id="uWNcW1qfraKrb9NrxXag-5" value="" style="points=[[0.015,0.015,0],[0.985,0.015,0],[0.985,0.985,0],[0.015,0.985,0],[0.25,0,0],[0.5,0,0],[0.75,0,0],[1,0.25,0],[1,0.5,0],[1,0.75,0],[0.75,1,0],[0.5,1,0],[0.25,1,0],[0,0.75,0],[0,0.5,0],[0,0.25,0]];verticalLabelPosition=bottom;html=1;verticalAlign=top;aspect=fixed;align=center;pointerEvents=1;shape=mxgraph.cisco19.rect;prIcon=l3_switch_with_dual_supervisor;fillColor=#FAFAFA;strokeColor=#005073;" vertex="1" parent="1">
          <mxGeometry x="510" y="480" width="50" height="95" as="geometry" />
        </mxCell>
        <mxCell id="uWNcW1qfraKrb9NrxXag-7" value="" style="ellipse;whiteSpace=wrap;html=1;fillColor=none;" vertex="1" parent="1">
          <mxGeometry x="430" y="495" width="20" height="65" as="geometry" />
        </mxCell>
        <mxCell id="uWNcW1qfraKrb9NrxXag-12" value="" style="endArrow=classic;html=1;exitX=0.985;exitY=0.015;exitDx=0;exitDy=0;exitPerimeter=0;" edge="1" parent="1" source="uWNcW1qfraKrb9NrxXag-4">
          <mxGeometry width="50" height="50" relative="1" as="geometry">
            <mxPoint x="390" y="600" as="sourcePoint" />
            <mxPoint x="420" y="420" as="targetPoint" />
          </mxGeometry>
        </mxCell>
        <mxCell id="uWNcW1qfraKrb9NrxXag-13" value="" style="endArrow=classic;html=1;exitX=0.015;exitY=0.015;exitDx=0;exitDy=0;exitPerimeter=0;" edge="1" parent="1" source="uWNcW1qfraKrb9NrxXag-5">
          <mxGeometry width="50" height="50" relative="1" as="geometry">
            <mxPoint x="379.25" y="491.42499999999995" as="sourcePoint" />
            <mxPoint x="460" y="420" as="targetPoint" />
          </mxGeometry>
        </mxCell>
        <mxCell id="uWNcW1qfraKrb9NrxXag-14" value="" style="points=[[0.015,0.015,0],[0.985,0.015,0],[0.985,0.985,0],[0.015,0.985,0],[0.25,0,0],[0.5,0,0],[0.75,0,0],[1,0.25,0],[1,0.5,0],[1,0.75,0],[0.75,1,0],[0.5,1,0],[0.25,1,0],[0,0.75,0],[0,0.5,0],[0,0.25,0]];verticalLabelPosition=bottom;html=1;verticalAlign=top;aspect=fixed;align=center;pointerEvents=1;shape=mxgraph.cisco19.rect;prIcon=l2_switch;fillColor=#FAFAFA;strokeColor=#005073;" vertex="1" parent="1">
          <mxGeometry x="280" y="660" width="50" height="50" as="geometry" />
        </mxCell>
        <mxCell id="uWNcW1qfraKrb9NrxXag-15" value="" style="points=[[0.015,0.015,0],[0.985,0.015,0],[0.985,0.985,0],[0.015,0.985,0],[0.25,0,0],[0.5,0,0],[0.75,0,0],[1,0.25,0],[1,0.5,0],[1,0.75,0],[0.75,1,0],[0.5,1,0],[0.25,1,0],[0,0.75,0],[0,0.5,0],[0,0.25,0]];verticalLabelPosition=bottom;html=1;verticalAlign=top;aspect=fixed;align=center;pointerEvents=1;shape=mxgraph.cisco19.rect;prIcon=l2_switch;fillColor=#FAFAFA;strokeColor=#005073;" vertex="1" parent="1">
          <mxGeometry x="389" y="660" width="50" height="50" as="geometry" />
        </mxCell>
        <mxCell id="uWNcW1qfraKrb9NrxXag-16" value="" style="points=[[0.015,0.015,0],[0.985,0.015,0],[0.985,0.985,0],[0.015,0.985,0],[0.25,0,0],[0.5,0,0],[0.75,0,0],[1,0.25,0],[1,0.5,0],[1,0.75,0],[0.75,1,0],[0.5,1,0],[0.25,1,0],[0,0.75,0],[0,0.5,0],[0,0.25,0]];verticalLabelPosition=bottom;html=1;verticalAlign=top;aspect=fixed;align=center;pointerEvents=1;shape=mxgraph.cisco19.rect;prIcon=l2_switch;fillColor=#FAFAFA;strokeColor=#005073;" vertex="1" parent="1">
          <mxGeometry x="480" y="660" width="50" height="50" as="geometry" />
        </mxCell>
        <mxCell id="uWNcW1qfraKrb9NrxXag-17" value="" style="points=[[0.015,0.015,0],[0.985,0.015,0],[0.985,0.985,0],[0.015,0.985,0],[0.25,0,0],[0.5,0,0],[0.75,0,0],[1,0.25,0],[1,0.5,0],[1,0.75,0],[0.75,1,0],[0.5,1,0],[0.25,1,0],[0,0.75,0],[0,0.5,0],[0,0.25,0]];verticalLabelPosition=bottom;html=1;verticalAlign=top;aspect=fixed;align=center;pointerEvents=1;shape=mxgraph.cisco19.rect;prIcon=l2_switch;fillColor=#FAFAFA;strokeColor=#005073;" vertex="1" parent="1">
          <mxGeometry x="580" y="660" width="50" height="50" as="geometry" />
        </mxCell>
        <mxCell id="uWNcW1qfraKrb9NrxXag-18" value="" style="endArrow=none;html=1;exitX=0.5;exitY=0;exitDx=0;exitDy=0;exitPerimeter=0;entryX=0.5;entryY=1;entryDx=0;entryDy=0;entryPerimeter=0;" edge="1" parent="1" source="uWNcW1qfraKrb9NrxXag-14" target="uWNcW1qfraKrb9NrxXag-4">
          <mxGeometry width="50" height="50" relative="1" as="geometry">
            <mxPoint x="390" y="600" as="sourcePoint" />
            <mxPoint x="440" y="550" as="targetPoint" />
          </mxGeometry>
        </mxCell>
        <mxCell id="uWNcW1qfraKrb9NrxXag-19" value="" style="endArrow=none;html=1;exitX=0.5;exitY=0;exitDx=0;exitDy=0;exitPerimeter=0;entryX=0.5;entryY=1;entryDx=0;entryDy=0;entryPerimeter=0;" edge="1" parent="1" source="uWNcW1qfraKrb9NrxXag-14" target="uWNcW1qfraKrb9NrxXag-5">
          <mxGeometry width="50" height="50" relative="1" as="geometry">
            <mxPoint x="315" y="670" as="sourcePoint" />
            <mxPoint x="355" y="585" as="targetPoint" />
          </mxGeometry>
        </mxCell>
        <mxCell id="uWNcW1qfraKrb9NrxXag-20" value="" style="endArrow=none;html=1;exitX=0.5;exitY=0;exitDx=0;exitDy=0;exitPerimeter=0;entryX=0.5;entryY=1;entryDx=0;entryDy=0;entryPerimeter=0;" edge="1" parent="1" source="uWNcW1qfraKrb9NrxXag-15" target="uWNcW1qfraKrb9NrxXag-5">
          <mxGeometry width="50" height="50" relative="1" as="geometry">
            <mxPoint x="315" y="670" as="sourcePoint" />
            <mxPoint x="545" y="585" as="targetPoint" />
          </mxGeometry>
        </mxCell>
        <mxCell id="uWNcW1qfraKrb9NrxXag-21" value="" style="endArrow=none;html=1;exitX=0.5;exitY=0;exitDx=0;exitDy=0;exitPerimeter=0;entryX=0.5;entryY=1;entryDx=0;entryDy=0;entryPerimeter=0;" edge="1" parent="1" source="uWNcW1qfraKrb9NrxXag-15" target="uWNcW1qfraKrb9NrxXag-4">
          <mxGeometry width="50" height="50" relative="1" as="geometry">
            <mxPoint x="424" y="670" as="sourcePoint" />
            <mxPoint x="545" y="585" as="targetPoint" />
          </mxGeometry>
        </mxCell>
        <mxCell id="uWNcW1qfraKrb9NrxXag-22" value="" style="endArrow=none;html=1;exitX=0.5;exitY=0;exitDx=0;exitDy=0;exitPerimeter=0;entryX=0.5;entryY=1;entryDx=0;entryDy=0;entryPerimeter=0;" edge="1" parent="1" source="uWNcW1qfraKrb9NrxXag-16" target="uWNcW1qfraKrb9NrxXag-5">
          <mxGeometry width="50" height="50" relative="1" as="geometry">
            <mxPoint x="424" y="670" as="sourcePoint" />
            <mxPoint x="545" y="585" as="targetPoint" />
          </mxGeometry>
        </mxCell>
        <mxCell id="uWNcW1qfraKrb9NrxXag-23" value="" style="endArrow=none;html=1;exitX=0.5;exitY=0;exitDx=0;exitDy=0;exitPerimeter=0;entryX=0.5;entryY=1;entryDx=0;entryDy=0;entryPerimeter=0;" edge="1" parent="1" source="uWNcW1qfraKrb9NrxXag-16" target="uWNcW1qfraKrb9NrxXag-4">
          <mxGeometry width="50" height="50" relative="1" as="geometry">
            <mxPoint x="515" y="670" as="sourcePoint" />
            <mxPoint x="545" y="585" as="targetPoint" />
          </mxGeometry>
        </mxCell>
        <mxCell id="uWNcW1qfraKrb9NrxXag-24" value="" style="endArrow=none;html=1;exitX=0.5;exitY=0;exitDx=0;exitDy=0;exitPerimeter=0;entryX=0.5;entryY=1;entryDx=0;entryDy=0;entryPerimeter=0;" edge="1" parent="1" source="uWNcW1qfraKrb9NrxXag-17" target="uWNcW1qfraKrb9NrxXag-5">
          <mxGeometry width="50" height="50" relative="1" as="geometry">
            <mxPoint x="515" y="670" as="sourcePoint" />
            <mxPoint x="545" y="585" as="targetPoint" />
          </mxGeometry>
        </mxCell>
        <mxCell id="uWNcW1qfraKrb9NrxXag-25" value="" style="endArrow=none;html=1;entryX=0.5;entryY=1;entryDx=0;entryDy=0;entryPerimeter=0;exitX=0.5;exitY=0;exitDx=0;exitDy=0;exitPerimeter=0;" edge="1" parent="1" source="uWNcW1qfraKrb9NrxXag-17" target="uWNcW1qfraKrb9NrxXag-4">
          <mxGeometry width="50" height="50" relative="1" as="geometry">
            <mxPoint x="600" y="660" as="sourcePoint" />
            <mxPoint x="545" y="585" as="targetPoint" />
          </mxGeometry>
        </mxCell>
        <mxCell id="uWNcW1qfraKrb9NrxXag-26" value="" style="endArrow=none;dashed=1;html=1;" edge="1" parent="1">
          <mxGeometry width="50" height="50" relative="1" as="geometry">
            <mxPoint x="240" y="620" as="sourcePoint" />
            <mxPoint x="640" y="620" as="targetPoint" />
          </mxGeometry>
        </mxCell>
        <mxCell id="uWNcW1qfraKrb9NrxXag-27" value="&lt;font style=&quot;font-size: 24px&quot;&gt;To Gateway&lt;/font&gt;" style="text;html=1;align=center;verticalAlign=middle;resizable=0;points=[];autosize=1;fontStyle=1" vertex="1" parent="1">
          <mxGeometry x="370" y="380" width="150" height="20" as="geometry" />
        </mxCell>
        <mxCell id="uWNcW1qfraKrb9NrxXag-28" value="&lt;font style=&quot;font-size: 24px&quot;&gt;Core Switch&lt;/font&gt;" style="text;html=1;align=center;verticalAlign=middle;resizable=0;points=[];autosize=1;fontStyle=1" vertex="1" parent="1">
          <mxGeometry x="100" y="517.5" width="150" height="20" as="geometry" />
        </mxCell>
        <mxCell id="uWNcW1qfraKrb9NrxXag-29" value="&lt;font style=&quot;font-size: 24px&quot;&gt;ToR Switch&lt;/font&gt;" style="text;html=1;align=center;verticalAlign=middle;resizable=0;points=[];autosize=1;fontStyle=1" vertex="1" parent="1">
          <mxGeometry x="105" y="660" width="140" height="20" as="geometry" />
        </mxCell>
        <mxCell id="uWNcW1qfraKrb9NrxXag-30" value="" style="ellipse;whiteSpace=wrap;html=1;fillColor=none;strokeWidth=3;strokeColor=#FF0000;" vertex="1" parent="1">
          <mxGeometry x="240" y="630" width="420" height="110" as="geometry" />
        </mxCell>
        <mxCell id="uWNcW1qfraKrb9NrxXag-31" value="Untitled Layer" parent="0" />
      </root>
    </mxGraphModel>
  </diagram>
</mxfile>
